<svg xmlns="http://www.w3.org/2000/svg" xmlns:xlink="http://www.w3.org/1999/xlink" width="500" zoomAndPan="magnify" viewBox="0 0 375 374.999991" height="500" preserveAspectRatio="xMidYMid meet" version="1.2"><defs><clipPath id="c882e0211e"><path d="M 63 32.460938 L 172 32.460938 L 172 194 L 63 194 Z M 63 32.460938 "/></clipPath></defs><g id="193e56b2bb"><path style=" stroke:none;fill-rule:nonzero;fill:#6b7c24;fill-opacity:1;" d="M 190.488281 97.683594 L 190.589844 97.632812 C 195.179688 95.488281 200.019531 94.390625 205.011719 94.390625 C 213.042969 94.390625 220.378906 97.183594 226.019531 102.074219 C 223.722656 97.132812 219.53125 93.140625 214.242188 91.046875 C 212.097656 90.199219 210.847656 87.953125 211.25 85.65625 C 212.945312 75.777344 218.285156 57.863281 234.75 55.914062 C 235 55.867188 235.199219 55.765625 235.398438 55.566406 L 235.550781 55.417969 C 237.445312 53.222656 237.894531 50.078125 236.597656 47.433594 C 236.449219 47.132812 236.097656 46.933594 235.75 46.933594 C 231.707031 46.835938 208.953125 47.980469 205.058594 85.65625 C 204.859375 87.800781 203.265625 89.546875 201.117188 90.046875 C 195.730469 91.296875 190.988281 94.539062 187.996094 99.03125 C 188.941406 98.429688 189.839844 98.03125 190.488281 97.683594 Z M 190.488281 97.683594 "/><path style=" stroke:none;fill-rule:nonzero;fill:#fea621;fill-opacity:1;" d="M 96.429688 218.339844 C 84.652344 223.53125 77.964844 228.121094 74.023438 237.351562 C 72.675781 240.445312 76.566406 243.191406 79.0625 240.945312 C 84.5 236.054688 92.1875 231.214844 101.269531 231.265625 C 105.359375 231.316406 110.398438 231.363281 116.1875 231.117188 C 108.304688 226.875 101.71875 222.332031 96.429688 218.339844 Z M 96.429688 218.339844 "/><path style=" stroke:none;fill-rule:nonzero;fill:#fea621;fill-opacity:1;" d="M 230.011719 113.75 C 223.523438 100.027344 206.605469 94.4375 192.285156 101.226562 C 190.9375 101.875 173.871094 108.859375 171.925781 135.90625 C 170.429688 156.863281 159.851562 178.917969 142.585938 194.390625 C 164.890625 194.339844 187.546875 184.308594 201.816406 168.242188 C 212.644531 156.066406 223.625 151.523438 232.355469 150.175781 C 235.800781 136.703125 234.851562 123.980469 230.011719 113.75 Z M 187.246094 126.273438 C 185.648438 148.828125 174.320312 171.632812 157.15625 187.652344 C 168.984375 172.882812 176.566406 154.570312 177.863281 136.40625 C 178.960938 121.136719 185.300781 113.25 190.390625 109.308594 C 191.089844 108.808594 191.6875 108.359375 192.234375 108.011719 C 189.789062 112.402344 187.796875 118.339844 187.246094 126.273438 Z M 187.246094 126.273438 "/><path style=" stroke:none;fill-rule:nonzero;fill:#6b7c24;fill-opacity:1;" d="M 312.445312 141.644531 C 309.300781 139.097656 290.539062 126.175781 264.542969 153.71875 C 263.042969 155.316406 260.75 155.714844 258.753906 154.816406 C 253.714844 152.523438 248.023438 152.222656 242.886719 153.96875 C 244.28125 154.167969 245.230469 154.367188 245.730469 154.46875 L 245.828125 154.519531 C 259.050781 157.363281 268.734375 167.542969 271.226562 179.617188 C 272.425781 174.277344 271.527344 168.539062 268.582031 163.648438 C 267.386719 161.65625 267.785156 159.109375 269.480469 157.5625 C 276.816406 150.777344 291.988281 139.75 306.207031 148.230469 C 306.40625 148.332031 306.65625 148.382812 306.90625 148.332031 L 307.105469 148.28125 C 309.949219 147.683594 312.195312 145.4375 312.746094 142.59375 C 312.84375 142.242188 312.695312 141.894531 312.445312 141.644531 Z M 312.445312 141.644531 "/><path style=" stroke:none;fill-rule:nonzero;fill:#fea621;fill-opacity:1;" d="M 244.980469 158.359375 C 243.535156 158.0625 225.71875 153.222656 207.707031 173.53125 C 188.242188 195.535156 153.214844 208.460938 120.929688 199.480469 C 93.285156 191.792969 81.507812 187.054688 68.285156 194.488281 C 65.339844 196.136719 66.738281 200.675781 70.082031 200.425781 C 77.367188 199.828125 86.449219 200.675781 93.582031 206.265625 C 107.90625 217.492188 137.296875 241.046875 185.101562 240.695312 C 231.957031 240.347656 261.847656 216.644531 267.285156 191.296875 C 270.480469 176.425781 260.5 161.703125 244.980469 158.359375 Z M 225.71875 175.128906 C 210.699219 192.042969 187.84375 203.269531 164.492188 205.515625 C 182.90625 200.976562 200.070312 191.046875 212.144531 177.421875 C 222.324219 165.945312 232.105469 163.550781 238.542969 163.550781 C 239.390625 163.550781 240.140625 163.601562 240.839844 163.648438 C 236.199219 165.695312 231.007812 169.1875 225.71875 175.128906 Z M 225.71875 175.128906 "/><g clip-rule="nonzero" clip-path="url(#c882e0211e)"><path style=" stroke:none;fill-rule:nonzero;fill:#d41b23;fill-opacity:1;" d="M 82.503906 182.8125 C 91.339844 182.8125 101.117188 185.605469 114.691406 189.449219 C 117.335938 190.195312 120.128906 190.996094 123.074219 191.84375 C 125.867188 192.640625 128.714844 193.242188 131.605469 193.640625 L 137.296875 188.550781 C 152.664062 174.777344 162.644531 154.917969 164.042969 135.355469 C 164.742188 125.824219 167.085938 118.339844 170.179688 112.503906 C 169.28125 111.304688 168.535156 110.15625 167.984375 108.910156 C 163.242188 97.933594 165.9375 87.304688 171.777344 84.660156 C 171.777344 84.660156 162.347656 80.515625 155.210938 86.855469 C 148.074219 93.191406 148.421875 105.21875 150.570312 111.953125 C 152.714844 118.691406 154.0625 129.570312 146.078125 131.265625 C 138.195312 132.960938 126.46875 121.535156 126.71875 99.03125 C 126.917969 76.476562 135.398438 33.808594 96.027344 32.460938 C 96.027344 32.460938 107.007812 41.695312 108.703125 54.519531 C 110.398438 67.34375 107.304688 70.785156 104.460938 72.082031 C 101.617188 73.382812 90.488281 71.234375 95.28125 56.117188 C 95.28125 56.117188 85.148438 60.855469 84.203125 77.722656 C 83.253906 94.589844 94.332031 108.210938 96.476562 110.707031 C 98.625 113.101562 106.957031 124.679688 103.8125 139.25 C 100.667969 153.769531 88.09375 153.769531 85.898438 144.6875 C 83.703125 135.605469 92.734375 118.140625 74.921875 109.609375 C 74.921875 109.609375 80.011719 120.085938 69.230469 133.660156 C 61.496094 143.441406 60.5 165.398438 71.476562 184.410156 C 74.96875 183.359375 78.5625 182.8125 82.503906 182.8125 Z M 82.503906 182.8125 "/></g><g style="fill:#d41b23;fill-opacity:1;"><g transform="translate(69.944005, 266.917764)"><path style="stroke:none" d="M 49.5 -15.328125 C 46.59375 -10.054688 43.109375 -3.9375 39.046875 3.03125 C 34.984375 10.007812 31.351562 16.085938 28.15625 21.265625 C 26.445312 20.203125 24.71875 19.023438 22.96875 17.734375 C 21.226562 16.441406 20.023438 15.421875 19.359375 14.671875 C 20.617188 12.640625 22.066406 10.253906 23.703125 7.515625 C 25.347656 4.785156 27.007812 2.023438 28.6875 -0.765625 C 27.15625 -1.679688 25.691406 -2.507812 24.296875 -3.25 C 22.898438 -4 21.566406 -4.660156 20.296875 -5.234375 C 19.296875 -3.703125 18.253906 -2.070312 17.171875 -0.34375 C 16.097656 1.375 14.691406 3.640625 12.953125 6.453125 C 11.972656 6.191406 10.59375 5.640625 8.8125 4.796875 C 7.03125 3.953125 5.472656 3.117188 4.140625 2.296875 C 8.390625 -6.054688 11.882812 -12.75 14.625 -17.78125 C 17.363281 -22.8125 19.78125 -27.023438 21.875 -30.421875 C 22.925781 -30.460938 24.097656 -30.273438 25.390625 -29.859375 C 26.691406 -29.453125 27.9375 -28.882812 29.125 -28.15625 C 30 -27.613281 30.765625 -27.070312 31.421875 -26.53125 C 32.085938 -26 32.722656 -25.414062 33.328125 -24.78125 C 32.328125 -23.457031 31.097656 -21.71875 29.640625 -19.5625 C 28.179688 -17.40625 26.570312 -14.972656 24.8125 -12.265625 C 26.320312 -11.628906 27.757812 -10.988281 29.125 -10.34375 C 30.488281 -9.695312 31.816406 -8.992188 33.109375 -8.234375 C 34.722656 -10.992188 36.1875 -13.570312 37.5 -15.96875 C 38.8125 -18.363281 39.890625 -20.378906 40.734375 -22.015625 C 41.585938 -21.742188 42.363281 -21.457031 43.0625 -21.15625 C 43.757812 -20.851562 44.453125 -20.488281 45.140625 -20.0625 C 46.128906 -19.445312 47.007812 -18.71875 47.78125 -17.875 C 48.5625 -17.039062 49.132812 -16.191406 49.5 -15.328125 Z M 49.5 -15.328125 "/></g></g><g style="fill:#d41b23;fill-opacity:1;"><g transform="translate(112.485948, 291.050006)"><path style="stroke:none" d="M 39.21875 -29.296875 C 38.925781 -25.410156 38.578125 -22.226562 38.171875 -19.75 C 37.765625 -17.269531 37.253906 -14.976562 36.640625 -12.875 C 34.148438 -4.363281 30.914062 1.691406 26.9375 5.296875 C 22.957031 8.910156 18.332031 9.945312 13.0625 8.40625 C 8.976562 7.207031 6.335938 4.734375 5.140625 0.984375 C 3.953125 -2.753906 4.21875 -7.554688 5.9375 -13.421875 C 7 -17.054688 8.410156 -20.71875 10.171875 -24.40625 C 11.941406 -28.09375 13.335938 -30.429688 14.359375 -31.421875 C 15.078125 -31.398438 15.9375 -31.304688 16.9375 -31.140625 C 17.9375 -30.984375 18.890625 -30.769531 19.796875 -30.5 C 20.890625 -30.1875 21.8125 -29.84375 22.5625 -29.46875 C 23.3125 -29.09375 23.867188 -28.722656 24.234375 -28.359375 C 22.910156 -25.660156 21.707031 -22.929688 20.625 -20.171875 C 19.550781 -17.410156 18.644531 -14.765625 17.90625 -12.234375 C 16.675781 -8.015625 15.945312 -4.644531 15.71875 -2.125 C 15.488281 0.382812 15.8125 1.765625 16.6875 2.015625 C 17.78125 2.335938 19.007812 1.222656 20.375 -1.328125 C 21.738281 -3.890625 23.164062 -7.71875 24.65625 -12.8125 C 25.394531 -15.351562 26.003906 -18.097656 26.484375 -21.046875 C 26.972656 -24.003906 27.3125 -27.175781 27.5 -30.5625 C 29.050781 -30.75 30.953125 -30.710938 33.203125 -30.453125 C 35.453125 -30.203125 37.457031 -29.816406 39.21875 -29.296875 Z M 39.21875 -29.296875 "/></g></g><g style="fill:#d41b23;fill-opacity:1;"><g transform="translate(155.493179, 302.444079)"><path style="stroke:none" d="M 14.515625 -9.125 L 14.390625 1.546875 C 13.429688 1.828125 12.050781 2.066406 10.25 2.265625 C 8.445312 2.460938 6.816406 2.550781 5.359375 2.53125 C 4.765625 -5.46875 4.332031 -12.738281 4.0625 -19.28125 C 3.789062 -25.820312 3.6875 -31.363281 3.75 -35.90625 C 4.007812 -36.082031 4.210938 -36.207031 4.359375 -36.28125 C 4.503906 -36.351562 4.648438 -36.425781 4.796875 -36.5 C 6.234375 -37.21875 7.890625 -37.789062 9.765625 -38.21875 C 11.640625 -38.65625 13.582031 -38.898438 15.59375 -38.953125 C 17.757812 -35.734375 19.65625 -32.582031 21.28125 -29.5 C 22.914062 -26.414062 24.425781 -23.128906 25.8125 -19.640625 C 25.863281 -24.035156 25.816406 -27.945312 25.671875 -31.375 C 25.535156 -34.800781 25.316406 -37.597656 25.015625 -39.765625 C 26.929688 -40.328125 28.820312 -40.753906 30.6875 -41.046875 C 32.5625 -41.335938 34.414062 -41.472656 36.25 -41.453125 C 36.332031 -39.347656 36.378906 -37.320312 36.390625 -35.375 C 36.398438 -33.4375 36.394531 -31.550781 36.375 -29.71875 C 36.320312 -25.21875 36.164062 -20.503906 35.90625 -15.578125 C 35.644531 -10.648438 35.316406 -5.914062 34.921875 -1.375 C 32.648438 -1.039062 30.769531 -0.796875 29.28125 -0.640625 C 27.800781 -0.492188 26.363281 -0.394531 24.96875 -0.34375 C 22.6875 -6.0625 20.804688 -10.476562 19.328125 -13.59375 C 17.847656 -16.707031 16.316406 -19.550781 14.734375 -22.125 C 14.679688 -20.632812 14.644531 -18.984375 14.625 -17.171875 C 14.601562 -15.359375 14.566406 -12.675781 14.515625 -9.125 Z M 14.515625 -9.125 "/></g></g><g style="fill:#d41b23;fill-opacity:1;"><g transform="translate(205.837124, 301.225092)"><path style="stroke:none" d="M 26.734375 -27.34375 C 27.609375 -23.976562 28.671875 -20.726562 29.921875 -17.59375 C 31.179688 -14.457031 32.625 -11.445312 34.25 -8.5625 C 33.257812 -7.988281 32.144531 -7.429688 30.90625 -6.890625 C 29.664062 -6.359375 28.265625 -5.84375 26.703125 -5.34375 C 26.023438 -6.101562 25.375 -6.90625 24.75 -7.75 C 24.125 -8.59375 23.519531 -9.445312 22.9375 -10.3125 C 22.039062 -8.3125 20.851562 -6.675781 19.375 -5.40625 C 17.90625 -4.132812 16.125 -3.210938 14.03125 -2.640625 C 10.394531 -1.648438 7.140625 -2.203125 4.265625 -4.296875 C 1.398438 -6.398438 -0.660156 -9.75 -1.921875 -14.34375 C -3.796875 -21.226562 -3.71875 -27.492188 -1.6875 -33.140625 C 0.332031 -38.796875 3.875 -42.3125 8.9375 -43.6875 C 12.425781 -44.644531 15.503906 -44.390625 18.171875 -42.921875 C 20.835938 -41.460938 22.816406 -38.957031 24.109375 -35.40625 C 22.691406 -34.488281 21.140625 -33.671875 19.453125 -32.953125 C 17.773438 -32.234375 15.894531 -31.585938 13.8125 -31.015625 C 12.707031 -33.367188 11.773438 -34.972656 11.015625 -35.828125 C 10.253906 -36.679688 9.484375 -37.003906 8.703125 -36.796875 C 7.367188 -36.429688 6.664062 -34.773438 6.59375 -31.828125 C 6.519531 -28.878906 7.097656 -25.160156 8.328125 -20.671875 C 9.265625 -17.210938 10.304688 -14.78125 11.453125 -13.375 C 12.597656 -11.976562 13.941406 -11.492188 15.484375 -11.921875 C 16.484375 -12.191406 17.300781 -12.765625 17.9375 -13.640625 C 18.570312 -14.515625 18.96875 -15.617188 19.125 -16.953125 C 18.644531 -18.003906 18.1875 -19.054688 17.75 -20.109375 C 17.3125 -21.171875 16.90625 -22.238281 16.53125 -23.3125 C 17.84375 -24.09375 19.3125 -24.804688 20.9375 -25.453125 C 22.5625 -26.097656 24.492188 -26.726562 26.734375 -27.34375 Z M 26.734375 -27.34375 "/></g></g><g style="fill:#d41b23;fill-opacity:1;"><g transform="translate(250.10324, 287.520923)"><path style="stroke:none" d="M 27.78125 -15.5625 C 27.03125 -14.726562 24.285156 -12.679688 19.546875 -9.421875 C 14.816406 -6.160156 10.785156 -3.5625 7.453125 -1.625 C 3.734375 -6.175781 -0.40625 -11.625 -4.96875 -17.96875 C -9.539062 -24.3125 -13.15625 -29.691406 -15.8125 -34.109375 C -11.46875 -37.867188 -7.613281 -40.992188 -4.25 -43.484375 C -0.882812 -45.984375 2.519531 -48.234375 5.96875 -50.234375 C 6.644531 -49.066406 7.289062 -47.785156 7.90625 -46.390625 C 8.53125 -44.992188 9.101562 -43.488281 9.625 -41.875 C 7.851562 -40.832031 6.035156 -39.726562 4.171875 -38.5625 C 2.304688 -37.394531 0.382812 -36.148438 -1.59375 -34.828125 C -1.257812 -34.097656 -0.84375 -33.269531 -0.34375 -32.34375 C 0.144531 -31.425781 0.90625 -30.054688 1.9375 -28.234375 C 3.269531 -29.640625 4.675781 -30.925781 6.15625 -32.09375 C 7.644531 -33.257812 9.226562 -34.332031 10.90625 -35.3125 C 11.8125 -34.351562 12.664062 -33.320312 13.46875 -32.21875 C 14.28125 -31.113281 15.148438 -29.769531 16.078125 -28.1875 C 14.273438 -27.132812 12.515625 -26.039062 10.796875 -24.90625 C 9.085938 -23.769531 7.453125 -22.613281 5.890625 -21.4375 C 6.753906 -20.03125 7.613281 -18.664062 8.46875 -17.34375 C 9.320312 -16.019531 10.171875 -14.78125 11.015625 -13.625 C 11.941406 -14.15625 13.769531 -15.457031 16.5 -17.53125 C 19.226562 -19.613281 21.253906 -21.234375 22.578125 -22.390625 C 23.210938 -21.867188 24.054688 -20.90625 25.109375 -19.5 C 26.171875 -18.101562 27.0625 -16.789062 27.78125 -15.5625 Z M 27.78125 -15.5625 "/></g></g><g style="fill:#d41b23;fill-opacity:1;"><g transform="translate(287.887836, 263.946248)"><path style="stroke:none" d="M 23.203125 -26.765625 C 23.234375 -25.140625 22.988281 -23.414062 22.46875 -21.59375 C 21.957031 -19.78125 21.160156 -17.890625 20.078125 -15.921875 C 14.503906 -18.160156 10.46875 -19.675781 7.96875 -20.46875 C 5.476562 -21.257812 3.082031 -21.875 0.78125 -22.3125 C 0.601562 -22.03125 0.472656 -21.8125 0.390625 -21.65625 C 0.316406 -21.5 0.257812 -21.34375 0.21875 -21.1875 C 2.039062 -19.28125 3.785156 -17.390625 5.453125 -15.515625 C 7.128906 -13.640625 8.765625 -11.753906 10.359375 -9.859375 C 9.191406 -8.679688 7.96875 -7.539062 6.6875 -6.4375 C 5.40625 -5.34375 4.238281 -4.421875 3.1875 -3.671875 C 1.988281 -4.898438 1.09375 -5.816406 0.5 -6.421875 C -0.0820312 -7.035156 -0.632812 -7.601562 -1.15625 -8.125 C -4.445312 -11.40625 -7.992188 -14.710938 -11.796875 -18.046875 C -15.609375 -21.390625 -19.851562 -24.921875 -24.53125 -28.640625 C -24.351562 -30.910156 -23.691406 -33.21875 -22.546875 -35.5625 C -21.398438 -37.90625 -19.972656 -39.9375 -18.265625 -41.65625 C -14.878906 -45.0625 -11.546875 -46.960938 -8.265625 -47.359375 C -4.984375 -47.753906 -2.03125 -46.648438 0.59375 -44.046875 C 2.1875 -42.460938 3.257812 -40.566406 3.8125 -38.359375 C 4.363281 -36.160156 4.375 -33.703125 3.84375 -30.984375 C 6.789062 -30.785156 9.835938 -30.347656 12.984375 -29.671875 C 16.140625 -28.992188 19.546875 -28.023438 23.203125 -26.765625 Z M -4.578125 -26.109375 L -4.421875 -25.953125 C -3.679688 -27.640625 -3.492188 -29.257812 -3.859375 -30.8125 C -4.234375 -32.363281 -5.160156 -33.875 -6.640625 -35.34375 C -8.085938 -36.789062 -9.53125 -37.59375 -10.96875 -37.75 C -12.40625 -37.914062 -13.71875 -37.40625 -14.90625 -36.21875 L -15.0625 -36.0625 C -12.445312 -33.613281 -10.367188 -31.664062 -8.828125 -30.21875 C -7.296875 -28.769531 -5.878906 -27.398438 -4.578125 -26.109375 Z M -4.578125 -26.109375 "/></g></g></g></svg>